<?xml version="1.0" standalone="no"?>
<!DOCTYPE svg PUBLIC "-//W3C//DTD SVG 20010904//EN"
 "http://www.w3.org/TR/2001/REC-SVG-20010904/DTD/svg10.dtd">
<svg version="1.0" xmlns="http://www.w3.org/2000/svg"
 width="2813.000000pt" height="2813.000000pt" viewBox="0 0 2813.000000 2813.000000"
 preserveAspectRatio="xMidYMid meet">

<g transform="translate(0.000000,2813.000000) scale(0.100000,-0.100000)"
fill="#000000" stroke="none">
<path d="M14595 25311 c-39 -10 -198 -112 -535 -341 -151 -103 -518 -350 -815
-550 -297 -200 -999 -677 -1560 -1060 -2264 -1546 -5287 -3604 -7455 -5075
-420 -286 -779 -532 -797 -548 -47 -41 -95 -145 -95 -204 0 -44 253 -1437
1382 -7613 l410 -2245 88 -87 87 -86 1785 -852 c982 -469 2762 -1319 3955
-1889 1194 -571 2209 -1054 2257 -1075 48 -20 127 -60 175 -88 210 -124 312
-158 471 -158 l96 0 239 135 c142 81 303 182 398 251 250 180 591 417 1014
702 215 144 482 328 595 408 113 80 450 309 750 509 903 601 1656 1111 1810
1225 194 143 277 200 455 310 83 52 438 292 790 534 1349 927 2835 1940 4115
2806 695 470 931 634 1065 740 72 58 74 60 80 114 9 72 3 118 -31 253 l-29
111 -1255 -855 c-2480 -1690 -4678 -3185 -8530 -5802 l-1495 -1016 -125 0
c-92 0 -141 5 -185 18 -33 10 -532 247 -1110 527 -1975 956 -3562 1717 -5675
2721 -1101 524 -1273 610 -1392 696 l-47 34 107 73 c59 40 658 448 1332 906
2714 1846 6026 4112 8720 5964 l1305 898 -1 36 c-3 108 -27 262 -58 375 -48
175 -81 345 -101 517 -10 80 -59 372 -111 650 -247 1339 -354 1926 -514 2835
-44 253 -98 541 -120 640 -56 262 -96 468 -125 650 -110 692 -396 2297 -580
3255 -19 102 -35 206 -35 232 0 107 -40 214 -107 289 -60 66 -86 80 -170 89
-43 5 -109 15 -148 24 -86 18 -240 28 -280 17z m122 -986 c29 -9 68 -31 91
-53 l42 -37 449 -2480 c967 -5331 1033 -5698 1027 -5741 -3 -23 -12 -59 -21
-80 -14 -36 -105 -100 -1162 -819 -2144 -1458 -4749 -3233 -7343 -5004 -883
-603 -1627 -1107 -1654 -1121 -38 -19 -65 -24 -121 -25 -62 0 -78 4 -120 30
-29 18 -63 52 -86 85 -34 51 -39 69 -68 230 -431 2451 -860 4807 -1224 6730
l-161 855 -1 195 0 195 33 51 c18 28 54 72 80 97 26 26 659 462 1407 970 2412
1637 4539 3087 7205 4910 740 506 1380 944 1423 974 87 59 115 64 204 38z"/>
<path d="M17114 13905 l-488 -326 -96 42 c-155 68 -621 279 -672 305 -26 13
-50 24 -53 24 -11 0 -4 -61 10 -98 15 -38 24 -42 328 -192 172 -84 351 -171
399 -193 l88 -40 172 108 c203 128 436 282 674 446 166 115 194 143 194 189 0
23 -33 60 -54 60 -8 0 -234 -146 -502 -325z"/>
<path d="M18290 13694 c-102 -69 -261 -173 -353 -231 l-168 -105 -162 72 c-89
40 -224 104 -299 141 -187 94 -210 92 -158 -11 l31 -61 181 -90 c100 -49 245
-114 324 -145 l142 -56 340 227 c358 239 384 261 366 318 -10 33 -35 67 -48
66 -6 0 -94 -57 -196 -125z"/>
<path d="M18898 13227 c-183 -123 -391 -265 -463 -315 -71 -50 -174 -121 -227
-158 l-97 -67 -88 23 c-123 32 -288 93 -422 156 l-114 54 6 -37 c4 -20 17 -57
29 -81 22 -42 30 -47 133 -92 61 -26 177 -79 259 -117 l150 -69 55 16 c45 12
98 46 259 167 213 160 563 398 769 523 122 75 123 75 123 113 0 35 -23 107
-34 107 -3 0 -155 -100 -338 -223z"/>
<path d="M16125 13221 c-115 -77 -331 -218 -478 -314 l-269 -174 -113 43
c-171 66 -354 147 -514 229 -152 78 -167 81 -191 34 -9 -16 -7 -27 7 -52 16
-27 69 -54 423 -218 l404 -186 81 50 c428 268 843 546 883 591 39 45 40 67 5
106 l-28 30 -210 -139z"/>
<path d="M17210 12954 c-201 -134 -372 -244 -381 -244 -28 0 -196 71 -453 192
-115 54 -172 76 -179 69 -19 -19 -11 -70 14 -98 23 -25 313 -172 536 -271
l112 -50 99 58 c54 32 145 94 202 137 57 43 126 95 154 117 28 21 80 52 116
69 63 30 180 111 180 125 -1 15 -28 133 -31 136 -2 2 -168 -106 -369 -240z"/>
<path d="M19720 12879 c-424 -285 -617 -420 -1249 -876 -40 -29 -79 -53 -87
-53 -8 0 -81 33 -162 74 -285 143 -428 197 -446 168 -2 -4 10 -34 27 -67 l32
-59 170 -76 c94 -42 220 -102 280 -132 l111 -56 811 562 c823 569 843 584 843
641 0 23 -22 65 -34 65 -7 0 -140 -86 -296 -191z"/>
<path d="M20525 12322 c-237 -159 -493 -332 -570 -386 -77 -54 -144 -100 -150
-102 -6 -3 -163 65 -350 150 -253 115 -343 152 -352 144 -19 -15 -16 -73 5
-95 9 -11 51 -34 92 -52 41 -18 197 -94 347 -168 l272 -134 108 72 c59 40 209
142 333 227 514 354 683 476 701 506 22 36 24 71 6 103 -12 22 -23 16 -442
-265z"/>
<path d="M14860 12352 c-135 -87 -351 -226 -481 -310 l-236 -153 -179 77 c-99
41 -267 118 -374 170 -107 52 -204 93 -215 92 -32 -5 -46 -45 -28 -83 13 -28
38 -42 197 -115 99 -46 279 -130 398 -188 l218 -104 127 78 c156 94 331 211
478 317 146 106 375 286 374 295 0 4 -8 24 -17 45 l-17 37 -245 -158z"/>
<path d="M16208 12265 c-203 -135 -372 -245 -377 -245 -5 0 -42 19 -83 42
-168 96 -486 235 -513 225 -20 -8 -30 -54 -17 -81 7 -15 102 -68 327 -180
l318 -159 56 28 c83 40 207 125 281 192 110 100 320 243 356 243 39 0 54 20
54 69 0 48 -16 111 -28 111 -4 0 -172 -110 -374 -245z"/>
<path d="M17457 12250 c-202 -127 -372 -230 -379 -230 -17 0 -225 93 -381 172
-76 38 -142 66 -147 63 -15 -9 -12 -63 6 -102 14 -29 32 -42 113 -79 122 -58
323 -143 423 -179 l77 -27 58 51 c32 29 98 72 147 97 52 26 113 67 148 99 87
81 191 140 281 159 35 8 67 59 67 109 0 37 -23 97 -38 97 -4 0 -172 -104 -375
-230z"/>
<path d="M15410 11721 c-113 -75 -279 -181 -368 -235 l-164 -98 -136 58 c-76
31 -213 95 -306 141 -129 64 -171 81 -178 71 -18 -28 -20 -61 -6 -92 14 -27
38 -41 185 -108 93 -42 247 -109 342 -148 l172 -71 47 27 c96 56 196 128 265
191 80 73 166 134 236 166 26 13 70 37 98 55 42 27 53 40 63 79 14 49 9 66
-26 89 -17 11 -42 -3 -224 -125z"/>
<path d="M16745 11744 c-142 -97 -346 -222 -513 -314 l-133 -72 -142 58 c-78
31 -195 81 -260 110 -110 49 -118 51 -127 34 -34 -63 7 -102 203 -189 87 -39
212 -98 278 -131 l120 -61 105 78 c57 43 150 107 207 143 57 36 123 81 148
101 65 54 148 104 196 117 24 7 47 21 53 32 21 38 6 170 -19 170 -4 0 -56 -34
-116 -76z"/>
<path d="M18079 11741 c-38 -30 -475 -322 -577 -386 l-92 -58 -48 21 c-26 11
-152 65 -280 121 -128 56 -239 101 -248 101 -23 0 -37 -49 -23 -83 11 -25 40
-43 188 -116 180 -88 406 -191 422 -191 5 0 98 60 207 133 108 73 263 175 344
226 197 124 227 162 177 225 -24 31 -38 32 -70 7z"/>
<path d="M13400 11379 c-250 -160 -461 -293 -468 -296 -14 -6 -430 169 -651
273 -103 49 -137 61 -147 53 -17 -14 -18 -70 -1 -91 6 -8 163 -92 347 -186
184 -94 363 -186 397 -204 l62 -33 228 155 c125 85 342 232 483 325 240 160
256 172 264 207 8 33 7 41 -14 63 -13 14 -28 25 -34 24 -6 0 -216 -131 -466
-290z"/>
<path d="M19566 11661 c-9 -14 -415 -284 -562 -373 l-140 -85 -185 79 c-232
101 -551 229 -556 224 -7 -6 38 -115 55 -134 17 -19 261 -133 555 -258 l147
-64 143 87 c269 163 549 352 595 402 30 33 28 71 -6 104 -30 29 -38 32 -46 18z"/>
<path d="M14570 11159 c-109 -81 -423 -290 -555 -371 l-90 -55 -100 44 c-55
25 -192 90 -305 144 -176 86 -208 98 -228 89 l-23 -10 33 -62 33 -62 325 -146
325 -146 60 34 c103 60 217 138 300 207 110 90 183 140 246 168 77 35 114 77
114 130 0 41 -21 108 -34 106 -3 0 -49 -32 -101 -70z"/>
<path d="M15749 11069 c-79 -56 -244 -169 -367 -251 l-223 -149 -71 42 c-96
56 -239 123 -368 171 -98 37 -105 38 -117 22 -19 -27 -16 -60 10 -88 12 -14
85 -53 167 -89 80 -36 208 -96 286 -135 l141 -70 72 39 c123 66 225 141 321
233 86 82 153 131 233 169 78 37 107 68 107 114 0 23 -32 93 -43 93 -2 0 -68
-46 -148 -101z"/>
<path d="M17135 11088 c-119 -88 -367 -254 -525 -353 l-152 -94 -136 68 c-199
99 -420 185 -438 170 -17 -14 -18 -62 -3 -91 11 -20 255 -143 500 -252 l106
-47 214 148 c118 81 280 191 361 243 84 54 151 104 157 118 15 31 14 104 -1
125 -12 15 -20 12 -83 -35z"/>
<path d="M18268 10765 c-203 -135 -372 -245 -376 -245 -5 0 -163 70 -352 156
-251 114 -349 154 -366 150 -13 -4 -24 -10 -24 -14 0 -4 15 -33 33 -66 l32
-58 140 -58 c166 -68 274 -116 449 -199 71 -34 132 -61 137 -61 4 0 84 56 178
124 93 68 249 179 346 246 96 67 182 131 190 143 24 34 14 127 -13 127 -4 0
-172 -110 -374 -245z"/>
<path d="M12225 10579 c-264 -170 -485 -309 -492 -309 -14 0 -467 194 -648
278 l-130 60 -13 -24 c-16 -29 -7 -66 21 -92 12 -10 90 -50 172 -87 83 -38
253 -117 379 -177 126 -59 233 -108 239 -108 11 0 223 136 662 425 206 136
294 199 303 218 15 35 15 75 -1 104 -12 21 -27 13 -492 -288z"/>
<path d="M13639 10521 c-101 -78 -677 -441 -701 -441 -5 0 -35 14 -68 30 -77
39 -302 138 -452 201 l-118 48 0 -35 c0 -19 6 -50 14 -69 13 -31 31 -42 168
-109 147 -72 329 -148 469 -197 l66 -23 89 54 c119 71 237 156 320 231 68 62
209 159 231 159 21 0 73 51 73 72 0 27 -40 98 -55 98 -7 0 -23 -8 -36 -19z"/>
<path d="M14580 10279 c-201 -126 -370 -229 -376 -229 -5 0 -131 54 -279 120
-148 66 -273 116 -277 112 -7 -7 13 -106 23 -116 10 -10 335 -168 441 -215
l117 -52 53 16 c104 31 210 92 298 170 109 98 179 152 260 200 36 21 74 47 85
56 11 9 30 20 42 23 31 10 39 57 16 103 -10 20 -22 38 -28 39 -5 2 -174 -101
-375 -227z"/>
<path d="M16190 10438 c-152 -96 -475 -312 -564 -377 -53 -39 -100 -71 -106
-71 -6 0 -64 27 -130 60 -135 68 -446 210 -460 210 -20 0 -21 -61 -1 -103 17
-35 31 -47 83 -71 89 -40 376 -161 464 -195 l73 -29 348 224 c355 228 393 258
393 315 0 33 -16 79 -27 78 -5 0 -37 -19 -73 -41z"/>
<path d="M17495 10217 c-789 -526 -2083 -1399 -2977 -2008 l-466 -319 -204 94
c-262 120 -512 220 -532 213 -14 -6 -12 -15 15 -69 l31 -63 360 -164 359 -163
82 56 c45 31 856 584 1802 1230 1198 817 1727 1184 1743 1207 18 27 22 42 17
69 -4 19 -10 40 -13 46 -5 7 -85 -41 -217 -129z"/>
<path d="M11257 9907 c-137 -89 -313 -207 -393 -262 l-145 -99 -167 86 c-92
48 -263 132 -381 187 -166 79 -217 99 -227 90 -20 -17 -17 -76 5 -98 40 -40
771 -387 796 -377 26 10 343 211 558 354 242 161 258 177 238 244 -7 21 -17
38 -24 38 -7 0 -124 -73 -260 -163z"/>
<path d="M12605 9824 c-136 -99 -412 -277 -552 -357 l-81 -47 -104 49 c-57 27
-186 90 -287 140 -167 83 -231 105 -245 83 -2 -4 10 -34 27 -67 l32 -59 325
-147 325 -148 55 31 c128 71 228 143 424 308 33 27 94 68 136 90 58 30 81 47
90 70 13 32 9 125 -6 139 -5 5 -67 -34 -139 -85z"/>
<path d="M13810 9748 c-96 -61 -261 -166 -367 -235 l-192 -124 -190 80 c-104
44 -229 99 -277 121 -48 22 -91 40 -95 40 -15 0 -10 -69 6 -101 11 -20 39 -41
88 -66 152 -78 286 -136 413 -180 l132 -45 93 70 c52 38 121 86 154 108 33 21
81 57 107 81 82 74 222 153 273 153 54 0 83 100 48 171 l-18 37 -175 -110z"/>
<path d="M15030 9647 c-124 -79 -285 -182 -358 -230 -73 -48 -137 -87 -141
-87 -8 0 -383 160 -513 219 -65 29 -68 29 -78 11 -13 -24 -13 -56 0 -81 6 -11
74 -51 150 -89 159 -80 444 -210 459 -210 16 0 451 282 689 447 l92 65 -27 49
c-16 27 -32 49 -38 49 -5 0 -111 -65 -235 -143z"/>
<path d="M10017 9078 l-467 -311 -258 126 c-141 69 -317 153 -389 186 l-133
60 0 -33 c0 -18 5 -47 11 -65 11 -30 40 -46 400 -227 214 -107 394 -194 400
-194 6 0 68 40 137 88 221 154 402 276 587 397 99 64 185 126 192 138 16 29
16 109 1 130 -12 15 -61 -15 -481 -295z"/>
<path d="M11612 9145 c-241 -152 -566 -345 -580 -345 -11 0 -304 125 -510 219
-63 28 -116 51 -118 51 -11 0 -1 -40 20 -87 l25 -52 310 -156 c171 -85 316
-155 322 -155 24 0 155 86 261 171 125 100 244 182 328 224 30 16 79 44 108
63 48 31 52 37 52 73 0 34 -22 109 -32 109 -2 0 -86 -52 -186 -115z"/>
<path d="M12900 9129 c-151 -93 -399 -258 -529 -352 l-103 -76 -157 79 c-158
79 -361 170 -378 170 -15 0 -53 -45 -53 -62 0 -31 58 -73 161 -117 57 -24 181
-83 274 -131 155 -79 172 -86 195 -74 14 6 52 24 85 39 83 37 235 140 328 222
138 120 180 152 254 189 72 37 73 38 73 76 0 33 -22 108 -32 108 -2 0 -55 -32
-118 -71z"/>
<path d="M13954 8920 l-371 -248 -139 68 c-280 138 -481 205 -478 160 1 -9 13
-35 28 -59 25 -38 44 -51 214 -134 103 -51 236 -114 295 -140 l108 -47 157
109 c86 60 250 170 364 245 182 120 208 140 218 172 13 39 6 96 -13 112 -8 7
-119 -62 -383 -238z"/>
<path d="M10506 8400 c-147 -99 -312 -212 -368 -251 l-101 -72 -186 95 c-192
99 -429 208 -451 208 -9 0 -10 -10 -5 -37 15 -81 10 -78 356 -253 l327 -164
98 64 c54 36 150 100 212 142 l113 77 97 -38 c165 -66 482 -219 482 -232 0
-19 -1162 -859 -1188 -859 -5 0 -72 29 -148 64 -230 105 -404 177 -414 171
-17 -10 -11 -71 9 -97 11 -13 50 -37 88 -53 113 -48 303 -139 393 -189 74 -41
88 -46 105 -35 11 7 54 30 95 52 185 97 1590 1060 1710 1172 57 53 170 142
235 185 62 40 75 57 75 90 0 25 -31 70 -49 70 -4 0 -79 -50 -167 -112 -87 -61
-252 -173 -365 -249 l-206 -137 -124 57 c-69 31 -156 74 -195 95 -152 84 -244
139 -254 151 -17 21 -1 42 57 75 57 32 74 58 87 132 6 31 3 39 -13 47 -11 6
-24 11 -29 11 -4 0 -129 -81 -276 -180z"/>
<path d="M8930 8332 c-195 -131 -416 -281 -490 -333 -74 -52 -140 -98 -147
-102 -6 -4 -66 23 -135 60 -133 72 -387 195 -543 264 -106 47 -115 45 -115
-18 0 -63 30 -83 421 -279 203 -101 373 -184 377 -184 21 0 984 652 1030 697
30 30 30 82 -1 111 -13 12 -28 22 -33 22 -5 0 -169 -107 -364 -238z"/>
<path d="M13315 8479 c-143 -110 -625 -411 -680 -425 -12 -3 -112 35 -255 96
-129 56 -257 111 -283 123 -56 23 -67 17 -67 -40 0 -61 34 -83 328 -213 150
-66 278 -120 285 -120 46 0 676 400 745 473 33 35 38 77 12 110 -27 34 -36 34
-85 -4z"/>
<path d="M9654 7811 c-94 -59 -254 -164 -356 -233 l-185 -125 -166 82 c-349
172 -471 218 -484 180 -2 -6 12 -32 29 -59 32 -46 44 -54 333 -200 l301 -153
38 31 c34 28 45 31 107 32 83 1 99 12 75 49 -10 15 -16 28 -14 30 10 10 302
193 406 254 l122 72 0 40 c0 34 -22 110 -32 109 -2 -1 -80 -49 -174 -109z"/>
<path d="M11525 7260 l-819 -558 -86 43 c-186 93 -528 240 -538 230 -9 -9 9
-74 31 -106 15 -24 52 -49 122 -86 91 -47 418 -199 479 -222 22 -9 47 6 233
136 318 223 733 506 1101 752 326 218 372 255 372 302 0 24 -39 69 -58 68 -9
-1 -386 -252 -837 -559z"/>
<path d="M13423 7449 l-372 -249 -356 155 c-196 85 -359 155 -364 155 -13 0
-31 -49 -31 -83 0 -31 5 -35 123 -99 67 -37 149 -79 182 -93 143 -65 301 -125
325 -125 15 0 53 -13 84 -29 l56 -28 263 176 c393 264 467 319 484 359 15 36
10 84 -10 100 -8 7 -127 -68 -384 -239z"/>
<path d="M12285 6670 c-330 -220 -605 -400 -611 -400 -6 0 -89 36 -185 79
-190 87 -477 208 -514 217 -20 5 -24 1 -29 -33 -3 -21 -2 -54 2 -73 8 -34 10
-35 147 -85 166 -61 341 -134 497 -208 l114 -53 249 177 c138 98 404 281 593
406 l342 228 0 72 c0 40 -1 73 -2 73 -2 0 -273 -180 -603 -400z"/>
</g>
</svg>
